HIERARCHY
ROOT Hips
{
	OFFSET 0.000000 0.000000 0.000000
	CHANNELS 6 Xposition Yposition Zposition Xrotation Yrotation Zrotation
	JOINT Spine
	{
		OFFSET 0.000000 0.049001 0.073502
		CHANNELS 3 Xrotation Yrotation Zrotation
		JOINT Spine1
		{
			OFFSET 0.000000 0.017018 0.096514
			CHANNELS 3 Xrotation Yrotation Zrotation
			JOINT Spine2
			{
				OFFSET 0.000000 0.008542 0.097630
				CHANNELS 3 Xrotation Yrotation Zrotation
				JOINT Spine3
				{
					OFFSET 0.000000 0.000000 0.098003
					CHANNELS 3 Xrotation Yrotation Zrotation
					JOINT Neck
					{
						OFFSET 0.000000 -0.036751 0.257258
						CHANNELS 3 Xrotation Yrotation Zrotation
						JOINT Head
						{
							OFFSET 0.000000 -0.023400 0.132707
							CHANNELS 3 Xrotation Yrotation Zrotation
							End Site
							{
								OFFSET 0.000000 0.000000 0.000000
							}
						}
					}
					JOINT RightShoulder
					{
						OFFSET -0.030410 -0.050683 0.164214
						CHANNELS 3 Xrotation Yrotation Zrotation
						JOINT RightArm
						{
							OFFSET -0.151036 0.000000 0.000000
							CHANNELS 3 Xrotation Yrotation Zrotation
							JOINT RightForeArm
							{
								OFFSET -0.279942 0.000000 0.000000
								CHANNELS 3 Xrotation Yrotation Zrotation
								JOINT RightHand
								{
									OFFSET -0.265034 0.000000 0.000000
									CHANNELS 3 Xrotation Yrotation Zrotation
									JOINT RightHandEnd
									{
										OFFSET -0.071866 0.000000 0.000000
										CHANNELS 3 Xrotation Yrotation Zrotation
										End Site
										{
											OFFSET 0.000000 0.000000 0.000000
										}
									}
									JOINT RightHandThumb1
									{
										OFFSET -0.028746 -0.047911 -0.019164
										CHANNELS 3 Xrotation Yrotation Zrotation
										End Site
										{
											OFFSET 0.000000 0.000000 0.000000
										}
									}
								}
							}
						}
					}
					JOINT LeftShoulder
					{
						OFFSET 0.030410 -0.050683 0.164214
						CHANNELS 3 Xrotation Yrotation Zrotation
						JOINT LeftArm
						{
							OFFSET 0.151036 0.000000 0.000000
							CHANNELS 3 Xrotation Yrotation Zrotation
							JOINT LeftForeArm
							{
								OFFSET 0.279942 0.000000 0.000000
								CHANNELS 3 Xrotation Yrotation Zrotation
								JOINT LeftHand
								{
									OFFSET 0.265034 0.000000 0.000000
									CHANNELS 3 Xrotation Yrotation Zrotation
									JOINT LeftHandEnd
									{
										OFFSET 0.071866 0.000000 0.000000
										CHANNELS 3 Xrotation Yrotation Zrotation
										End Site
										{
											OFFSET 0.000000 0.000000 0.000000
										}
									}
									JOINT LeftHandThumb1
									{
										OFFSET 0.028746 -0.047911 -0.019164
										CHANNELS 3 Xrotation Yrotation Zrotation
										End Site
										{
											OFFSET 0.000000 0.000000 0.000000
										}
									}
								}
							}
						}
					}
				}
			}
		}
	}
	JOINT RightUpLeg
	{
		OFFSET -0.090216 0.000000 -0.026355
		CHANNELS 3 Xrotation Yrotation Zrotation
		JOINT RightLeg
		{
			OFFSET 0.000000 0.000000 -0.402871
			CHANNELS 3 Xrotation Yrotation Zrotation
			JOINT RightFoot
			{
				OFFSET 0.000000 0.000000 -0.414145
				CHANNELS 3 Xrotation Yrotation Zrotation
				JOINT RightToeBase
				{
					OFFSET 0.000000 -0.146359 -0.053270
					CHANNELS 3 Xrotation Yrotation Zrotation
					End Site
					{
						OFFSET 0.000000 0.000000 0.000000
					}
				}
			}
		}
	}
	JOINT LeftUpLeg
	{
		OFFSET 0.090216 0.000000 -0.026355
		CHANNELS 3 Xrotation Yrotation Zrotation
		JOINT LeftLeg
		{
			OFFSET 0.000000 0.000000 -0.402871
			CHANNELS 3 Xrotation Yrotation Zrotation
			JOINT LeftFoot
			{
				OFFSET 0.000000 0.000000 -0.414145
				CHANNELS 3 Xrotation Yrotation Zrotation
				JOINT LeftToeBase
				{
					OFFSET 0.000000 -0.146359 -0.053270
					CHANNELS 3 Xrotation Yrotation Zrotation
					End Site
					{
						OFFSET 0.000000 0.000000 0.000000
					}
				}
			}
		}
	}
}
MOTION
Frames: 10
Frame Time: 0.033333
-0.332151 -0.373423 0.923310 3.405400 -5.178500 94.023100 0.268400 4.125300 0.826200 -1.151500 0.295800 0.033400 8.025100 -1.072200 -1.082600 3.156000 -0.475000 0.359300 10.771600 0.074000 2.886600 2.177700 3.966900 7.992000 2.233200 7.818800 -7.155000 -10.626200 -23.408500 7.826400 0.000000 0.000000 0.263800 -19.460500 -4.471100 -7.443000 0.000000 0.000000 0.000000 0.000000 0.000000 0.000000 5.406600 -8.080600 8.591700 9.293400 9.956700 -24.116400 0.000000 0.000000 0.857400 -18.456600 -0.880800 2.885800 0.000000 0.000000 0.000000 0.000000 0.000000 0.000000 6.692100 2.253000 -37.254700 6.336000 0.000000 0.000000 -5.603200 1.071200 2.033200 -2.719500 0.000000 0.000000 4.584200 2.021300 28.381600 9.562300 0.000000 0.000000 -0.115300 1.652200 -3.931500 -12.516400 0.000000 0.000000 
-0.332946 -0.373118 0.923295 3.389300 -5.134500 94.207000 0.322300 4.111600 0.802700 -1.135700 0.280700 0.030700 7.999300 -1.047700 -1.087400 3.134000 -0.465800 0.345900 10.686900 0.010600 2.769900 2.074800 3.856700 7.793100 2.245300 7.872400 -7.100600 -10.360400 -23.459700 7.896600 0.000000 0.000000 -0.107800 -19.255200 -4.766600 -7.780100 0.000000 0.000000 0.000000 0.000000 0.000000 0.000000 5.435500 -8.122000 8.512400 9.389000 9.903100 -24.156700 0.000000 0.000000 0.714000 -18.565600 -0.976700 2.766300 0.000000 0.000000 0.000000 0.000000 0.000000 0.000000 6.594500 2.248700 -37.330900 6.383100 0.000000 0.000000 -5.593700 1.098000 1.920700 -2.704400 0.000000 0.000000 4.313000 1.964500 27.931600 9.878100 0.000000 0.000000 -0.195400 1.611900 -3.622600 -12.486100 0.000000 0.000000 
-0.333964 -0.372577 0.923265 3.359600 -5.088400 94.408200 0.385200 4.072200 0.762100 -1.113000 0.265500 0.029700 7.977300 -1.015300 -1.075900 3.110900 -0.451700 0.335100 10.597400 -0.030200 2.619200 1.926300 3.705700 7.534400 2.279300 7.963400 -7.016200 -10.037100 -23.550600 8.029500 0.000000 0.000000 -0.557700 -18.989300 -5.200400 -8.260500 0.000000 0.000000 0.000000 0.000000 0.000000 0.000000 5.470100 -8.130400 8.417500 9.563300 9.784400 -24.167600 0.000000 0.000000 0.457000 -18.747800 -1.154700 2.589300 0.000000 0.000000 0.000000 0.000000 0.000000 0.000000 6.466600 2.252000 -37.410200 6.460900 0.000000 0.000000 -5.579700 1.124700 1.780000 -2.671000 0.000000 0.000000 3.990800 1.904700 27.399500 10.254600 0.000000 0.000000 -0.297000 1.555100 -3.235500 -12.494500 0.000000 0.000000 
-0.334602 -0.371947 0.923247 3.343800 -5.091700 94.468800 0.435000 4.038700 0.737900 -1.091100 0.259400 0.029200 7.963900 -0.994700 -1.042400 3.104800 -0.440700 0.334800 10.585500 0.001900 2.536300 1.832800 3.603200 7.367800 2.326500 8.041800 -6.942700 -9.871800 -23.640700 8.177700 0.000000 0.000000 -0.744700 -18.764700 -5.558000 -8.496800 0.000000 0.000000 0.000000 0.000000 0.000000 0.000000 5.482400 -8.069900 8.372100 9.712400 9.666900 -24.125900 0.000000 0.000000 0.246500 -18.914300 -1.362900 2.445200 0.000000 0.000000 0.000000 0.000000 0.000000 0.000000 6.394500 2.298300 -37.463300 6.554800 0.000000 0.000000 -5.570000 1.121500 1.748500 -2.642800 0.000000 0.000000 3.886600 1.916000 27.180200 10.370800 0.000000 0.000000 -0.325400 1.521300 -3.054200 -12.567600 0.000000 0.000000 
-0.334856 -0.371343 0.923272 3.359500 -5.067200 94.362600 0.399600 4.042900 0.748700 -1.096600 0.264100 0.031600 7.973900 -0.984400 -0.991100 3.112400 -0.437600 0.342300 10.652000 0.072900 2.549400 1.852200 3.580100 7.342100 2.342800 8.044300 -6.891500 -9.920300 -23.671200 8.269400 0.000000 0.000000 -0.549100 -18.590800 -5.748900 -8.326600 0.000000 0.000000 0.000000 0.000000 0.000000 0.000000 5.452900 -7.968900 8.381900 9.796700 9.598300 -24.065500 0.000000 0.000000 0.205500 -18.988200 -1.456300 2.429000 0.000000 0.000000 0.000000 0.000000 0.000000 0.000000 6.291600 2.415900 -37.506800 6.683300 0.000000 0.000000 -5.583800 1.102900 1.882700 -2.633100 0.000000 0.000000 3.973900 2.027500 27.379400 10.129500 0.000000 0.000000 -0.238900 1.515400 -3.170600 -12.606400 0.000000 0.000000 
-0.334805 -0.370713 0.923379 3.405000 -5.091400 94.185900 0.388100 4.065200 0.775100 -1.093700 0.279600 0.035500 7.964500 -0.965100 -0.928200 3.116200 -0.442000 0.351500 10.739800 0.123500 2.613800 1.953900 3.607600 7.384400 2.326000 8.006900 -6.838300 -10.079800 -23.658300 8.275200 0.000000 0.000000 -0.163300 -18.489700 -5.851500 -7.944000 0.000000 0.000000 0.000000 0.000000 0.000000 0.000000 5.409300 -7.916500 8.411900 9.883200 9.603200 -24.028500 0.000000 0.000000 0.297800 -18.954900 -1.326100 2.547200 0.000000 0.000000 0.000000 0.000000 0.000000 0.000000 6.265600 2.568400 -37.590900 6.788200 0.000000 0.000000 -5.599400 1.061800 2.132100 -2.634000 0.000000 0.000000 4.274100 2.211000 27.895500 9.622000 0.000000 0.000000 -0.056500 1.516200 -3.557200 -12.490500 0.000000 0.000000 
-0.334701 -0.370050 0.923511 3.441100 -5.163100 94.031100 0.431500 4.069100 0.783200 -1.062500 0.300200 0.038200 7.927900 -0.942400 -0.870800 3.106700 -0.449200 0.361300 10.775000 0.146300 2.683300 2.053200 3.657100 7.441300 2.294400 7.972800 -6.765000 -10.247500 -23.612900 8.239800 0.000000 0.000000 0.166100 -18.519700 -5.897300 -7.624400 0.000000 0.000000 0.000000 0.000000 0.000000 0.000000 5.381600 -7.912200 8.446100 9.974600 9.644400 -23.999300 0.000000 0.000000 0.403100 -18.850000 -1.065500 2.716100 0.000000 0.000000 0.000000 0.000000 0.000000 0.000000 6.322200 2.685800 -37.687900 6.823800 0.000000 0.000000 -5.585400 1.006000 2.366700 -2.630000 0.000000 0.000000 4.622700 2.374100 28.491000 9.126600 0.000000 0.000000 0.128800 1.504300 -4.043800 -12.281300 0.000000 0.000000 
-0.334825 -0.369514 0.923577 3.430100 -5.192800 93.923000 0.480900 4.060800 0.784400 -1.042300 0.302700 0.039500 7.894600 -0.940500 -0.841700 3.088900 -0.457600 0.367600 10.716900 0.166800 2.744700 2.080100 3.712100 7.510300 2.270600 7.949700 -6.696300 -10.375600 -23.537500 8.222900 0.000000 0.000000 0.340100 -18.621800 -5.851500 -7.465000 0.000000 0.000000 0.000000 0.000000 0.000000 0.000000 5.376400 -7.889500 8.479700 9.998800 9.661700 -23.937700 0.000000 0.000000 0.432700 -18.744500 -0.911400 2.854200 0.000000 0.000000 0.000000 0.000000 0.000000 0.000000 6.344500 2.723500 -37.749000 6.799700 0.000000 0.000000 -5.534000 0.957900 2.521800 -2.615900 0.000000 0.000000 4.771800 2.427800 28.925900 8.907400 0.000000 0.000000 0.217600 1.486000 -4.400500 -12.174700 0.000000 0.000000 
-0.335277 -0.369161 0.923572 3.381900 -5.122200 93.874500 0.482700 4.055100 0.803800 -1.055600 0.281900 0.036100 7.892600 -0.953300 -0.843400 3.069600 -0.462700 0.369800 10.575400 0.176000 2.785700 2.014300 3.744300 7.580700 2.265000 7.929100 -6.673400 -10.423400 -23.451000 8.237400 0.000000 0.000000 0.372400 -18.629300 -5.768300 -7.442300 0.000000 0.000000 0.000000 0.000000 0.000000 0.000000 5.384100 -7.830800 8.494800 9.959600 9.611200 -23.862100 0.000000 0.000000 0.376700 -18.709800 -0.959200 2.941300 0.000000 0.000000 0.000000 0.000000 0.000000 0.000000 6.252800 2.705200 -37.814500 6.759500 0.000000 0.000000 -5.469700 0.932900 2.637900 -2.597800 0.000000 0.000000 4.636600 2.384900 29.025700 8.988000 0.000000 0.000000 0.196900 1.472900 -4.455700 -12.236100 0.000000 0.000000 
-0.335724 -0.368770 0.923574 3.342800 -5.040000 93.904100 0.467900 4.036800 0.799000 -1.071000 0.262900 0.035000 7.917300 -0.952100 -0.843500 3.054600 -0.458400 0.365400 10.415700 0.156600 2.805900 1.879300 3.737100 7.622400 2.273500 7.938800 -6.692900 -10.394800 -23.403500 8.240200 0.000000 0.000000 0.306700 -18.502000 -5.751600 -7.525200 0.000000 0.000000 0.000000 0.000000 0.000000 0.000000 5.401800 -7.772500 8.494600 9.942500 9.503800 -23.836500 0.000000 0.000000 0.287100 -18.756700 -1.082000 2.961600 0.000000 0.000000 0.000000 0.000000 0.000000 0.000000 6.167200 2.686600 -37.968200 6.707600 0.000000 0.000000 -5.409900 0.911500 2.766000 -2.580000 0.000000 0.000000 4.442100 2.353400 28.798400 9.134900 0.000000 0.000000 0.146800 1.459200 -4.244500 -12.356200 0.000000 0.000000 
